<svg xmlns="http://www.w3.org/2000/svg" width="512" height="512" viewBox="0 0 512 512" fill="none"><path d="M492.229 142.595H399.901C392.318 142.595 386.129 148.784 386.129 156.367V248.639C386.129 256.222 379.941 262.41 372.358 262.41H266.37V22H135.851C64.0955 22 6 80.0955 6 151.795V489.886H14.3073C24.8448 428.78 77.9781 382.281 142.095 382.281H145.552H266.314H372.414C379.996 382.281 386.185 376.092 386.185 368.51V276.237C386.185 268.655 392.374 262.466 399.956 262.466H492.229C499.811 262.466 506 256.277 506 248.695V156.367C506 148.784 499.811 142.595 492.229 142.595Z" fill="url(#paint0_linear_729_13571)"/><defs><linearGradient id="paint0_linear_729_13571" x1="6" y1="255.943" x2="506" y2="255.943" gradientUnits="userSpaceOnUse"><stop stop-color="#5E8AF0"/><stop offset="1" stop-color="#9A6BFF"/></linearGradient></defs></svg>